<?xml version="1.0" encoding="utf-8"?>
<!-- Generator: Adobe Illustrator 16.0.0, SVG Export Plug-In . SVG Version: 6.00 Build 0)  -->
<!DOCTYPE svg PUBLIC "-//W3C//DTD SVG 1.1//EN" "http://www.w3.org/Graphics/SVG/1.1/DTD/svg11.dtd">
<svg version="1.1" id="Layer_1" xmlns="http://www.w3.org/2000/svg" xmlns:xlink="http://www.w3.org/1999/xlink" x="0px" y="0px" viewBox="0 0 211.183 219.51" enable-background="new 0 0 211.183 219.51"
	 xml:space="preserve">
<g>
	<g>
		<path fill="#B5121B" d="M105.591,51.89c-13.554,0-24.542,10.988-24.542,24.543c0,2.384,0.347,4.685,0.98,6.864h-0.004
			c0,0,0.004,0.009,0.008,0.016c0.687,2.354,1.713,4.561,3.029,6.564c7.354,11.059,15.233,34.976,19.782,59.023
			c0.022,0.128,0.046,0.255,0.069,0.381c0.125,0.253,0.379,0.431,0.677,0.431c0.307,0,0.566-0.184,0.687-0.445l0.064-0.346
			c4.622-24.162,12.705-48.268,19.584-58.741c2.656-3.923,4.208-8.653,4.208-13.747C130.134,62.878,119.146,51.89,105.591,51.89z
			 M105.591,87.69c-6.217,0-11.257-5.04-11.257-11.257c0-6.217,5.04-11.257,11.257-11.257c6.218,0,11.257,5.04,11.257,11.257
			C116.848,82.65,111.809,87.69,105.591,87.69z"/>
	</g>
	<g>
		<path fill="#003767" d="M77.775,84.199c-0.003-0.008-0.009-0.018-0.009-0.018h0.004c-0.74-2.547-1.146-5.237-1.146-8.022
			c0-2.851,0.423-5.602,1.198-8.202l-48.664,8.477l48.85,8.509C77.928,84.695,77.849,84.448,77.775,84.199z"/>
	</g>
	<g>
		<path fill="#A7A9AC" d="M82.244,93.327L66.95,115.075l19.56-13.758C85.089,98.309,83.661,95.622,82.244,93.327z"/>
	</g>
	<g>
		<path fill="#A7A9AC" d="M88.48,52.935L66.95,37.792l15.142,21.529C83.872,56.871,86.029,54.714,88.48,52.935z"/>
	</g>
	<g>
		<path fill="#003767" d="M105.311,47.472c3.066,0,6.019,0.487,8.789,1.377L105.591,0l-8.476,48.668
			C99.711,47.894,102.461,47.472,105.311,47.472z"/>
	</g>
	<g>
		<path fill="#A7A9AC" d="M122.42,53.133c2.467,1.835,4.624,4.063,6.391,6.584l15.422-21.926L122.42,53.133z"/>
	</g>
	<g>
		<path fill="#003767" d="M182.024,76.433l-49.253-8.579c0.793,2.629,1.226,5.416,1.226,8.305c0,3.102-0.498,6.087-1.409,8.885
			L182.024,76.433z"/>
	</g>
	<g>
		<path fill="#A7A9AC" d="M128.643,92.909c-1.424,2.256-2.889,4.991-4.365,8.131l19.955,14.035L128.643,92.909z"/>
	</g>
</g>
<g>
	<path d="M3.418,203.053v-4.113h3.797v-28.988c0-1.203-0.379-1.772-1.772-1.772H3.291v-4.114h26.963l0.253,12.785h-2.025
		c-0.823,0-1.266-0.443-1.456-1.266l-1.013-4.557c-0.506-2.406-1.393-2.849-4.114-2.849h-8.102v13.165h6.456l0.696-2.975
		c0.253-1.076,0.949-1.203,1.646-1.203h1.456v12.279h-1.52c-0.633,0-1.329-0.254-1.582-1.266l-0.76-2.912h-6.393v12.09
		c0,1.075,0.57,1.582,1.583,1.582h10.76c0.886-2.596,1.583-6.773,1.835-9.558h1.709c1.139,0,1.519,0.507,1.519,1.583v12.088H3.418z"
		/>
	<path d="M52.015,203.053v-3.67h1.898c0.696,0,1.013-0.19,1.013-0.57c0-0.253-0.126-0.506-0.38-0.822l-4.304-5.064l-4.874,6.457
		h2.848v3.67H35.432v-3.67h1.898c1.899,0,2.785-0.887,3.608-2.025l6.393-8.418L37.9,177.799h-3.228v-3.734h14.051v3.734h-2.025
		c-0.696,0-1.139,0.127-1.139,0.633c0,0.254,0.126,0.57,0.38,0.887l4.177,4.873l4.81-6.393h-2.595v-3.734h12.025l0.76,3.734h-2.152
		c-1.456,0-2.152,0.127-3.355,1.646l-6.709,8.607l9.747,11.33h3.228v3.67H52.015z"/>
	<path d="M84.92,203.876c-2.785,0-5-0.759-6.709-2.216v10.697c0,2.848-1.139,4.811-4.621,4.811h-5.063v-3.861h2.152
		c1.076,0,1.582-0.443,1.582-1.582v-33.926h-3.481l-0.76-3.734c3.354,0,6.646-0.443,8.671-0.443c1.013,0,1.519,0.381,1.519,1.457
		v1.202c2.532-2.152,5.38-3.038,7.785-3.038c6.393,0,10.506,6.013,10.506,15.063C96.503,197.864,92.452,203.876,84.92,203.876z
		 M83.908,178.306c-1.962,0-3.861,0.886-5.696,2.595v12.152c0,4.24,2.532,6.266,5.443,6.266c4.241,0,6.519-2.848,6.519-11.076
		C90.174,184.129,89.225,178.306,83.908,178.306z"/>
	<path d="M99.642,203.053v-3.67h3.291v-35.762h-3.481l-0.76-3.734c3.354,0,6.646-0.443,8.671-0.443c1.013,0,1.519,0.443,1.519,1.457
		V197.8c0,1.076,0.38,1.583,1.519,1.583h1.835v3.67H99.642z"/>
	<path d="M127.643,203.876c-9.178,0-12.596-6.899-12.596-15.19s3.544-15.443,12.722-15.443c9.178,0,12.596,6.709,12.596,15.063
		C140.364,196.598,136.82,203.876,127.643,203.876z M127.833,177.799c-5.76,0-6.457,6.456-6.457,10.824
		c0,4.177,0.697,10.695,6.267,10.695c5.823,0,6.393-6.455,6.393-10.822C134.035,184.319,133.466,177.799,127.833,177.799z"/>
	<path d="M160.264,178.306c-3.798,0.063-5.886,1.708-7.342,3.228V197.8c0,1.076,0.507,1.583,1.519,1.583h1.836v3.67h-12.596v-3.67
		h3.292v-21.584h-3.481l-0.76-3.734c3.354,0,6.646-0.443,8.672-0.443c1.012,0,1.519,0.443,1.519,1.457v2.151
		c2.469-2.405,4.114-3.987,7.722-3.987c1.076,0,1.836,0.506,1.836,1.771v3.418C161.656,178.306,160.96,178.306,160.264,178.306z"/>
	<path d="M188.157,189.382h-17.469c0.127,6.709,3.418,10.063,7.532,10.063c2.658,0,5-1.203,6.772-2.658l1.898,2.848
		c-2.405,2.469-5.823,4.241-9.937,4.241c-9.114,0-12.596-6.899-12.596-15.19c0-4.684,1.329-8.988,4.051-11.836
		c2.089-2.215,5.063-3.607,8.798-3.607c5.696,0,11.013,4.24,11.013,14.24C188.221,188.053,188.221,188.813,188.157,189.382z
		 M177.145,177.737c-3.544,0-5.823,2.911-6.329,8.164h11.14c0-0.379,0.063-0.695,0.063-1.076
		C182.019,180.014,179.93,177.737,177.145,177.737z"/>
	<path d="M208.334,178.306c-3.798,0.063-5.886,1.708-7.342,3.228V197.8c0,1.076,0.507,1.583,1.519,1.583h1.836v3.67h-12.596v-3.67
		h3.292v-21.584h-3.481l-0.76-3.734c3.354,0,6.646-0.443,8.672-0.443c1.012,0,1.519,0.443,1.519,1.457v2.151
		c2.469-2.405,4.114-3.987,7.722-3.987c1.076,0,1.836,0.506,1.836,1.771v3.418C209.727,178.306,209.03,178.306,208.334,178.306z"/>
</g>
</svg>
